<svg id="visual" viewBox="0 0 1920 1080" width="1920" height="1080" xmlns="http://www.w3.org/2000/svg" xmlns:xlink="http://www.w3.org/1999/xlink" version="1.1"><path d="M0 87L101 87L101 87L202 87L202 109L303 109L303 44L404 44L404 55L505 55L505 55L606 55L606 55L707 55L707 55L808 55L808 66L909 66L909 109L1011 109L1011 98L1112 98L1112 66L1213 66L1213 120L1314 120L1314 120L1415 120L1415 55L1516 55L1516 77L1617 77L1617 109L1718 109L1718 109L1819 109L1819 109L1920 109L1920 55L1920 0L1920 0L1819 0L1819 0L1718 0L1718 0L1617 0L1617 0L1516 0L1516 0L1415 0L1415 0L1314 0L1314 0L1213 0L1213 0L1112 0L1112 0L1011 0L1011 0L909 0L909 0L808 0L808 0L707 0L707 0L606 0L606 0L505 0L505 0L404 0L404 0L303 0L303 0L202 0L202 0L101 0L101 0L0 0Z" fill="#bf5c0c"></path><path d="M0 195L101 195L101 152L202 152L202 249L303 249L303 174L404 174L404 131L505 131L505 141L606 141L606 206L707 206L707 131L808 131L808 120L909 120L909 260L1011 260L1011 174L1112 174L1112 217L1213 217L1213 239L1314 239L1314 260L1415 260L1415 174L1516 174L1516 163L1617 163L1617 163L1718 163L1718 174L1819 174L1819 271L1920 271L1920 174L1920 53L1920 107L1819 107L1819 107L1718 107L1718 107L1617 107L1617 75L1516 75L1516 53L1415 53L1415 118L1314 118L1314 118L1213 118L1213 64L1112 64L1112 96L1011 96L1011 107L909 107L909 64L808 64L808 53L707 53L707 53L606 53L606 53L505 53L505 53L404 53L404 42L303 42L303 107L202 107L202 85L101 85L101 85L0 85Z" fill="#a64a18"></path><path d="M0 357L101 357L101 465L202 465L202 519L303 519L303 498L404 498L404 530L505 530L505 347L606 347L606 444L707 444L707 368L808 368L808 401L909 401L909 411L1011 411L1011 422L1112 422L1112 627L1213 627L1213 401L1314 401L1314 476L1415 476L1415 606L1516 606L1516 336L1617 336L1617 487L1718 487L1718 357L1819 357L1819 444L1920 444L1920 422L1920 172L1920 269L1819 269L1819 172L1718 172L1718 161L1617 161L1617 161L1516 161L1516 172L1415 172L1415 258L1314 258L1314 237L1213 237L1213 215L1112 215L1112 172L1011 172L1011 258L909 258L909 118L808 118L808 129L707 129L707 204L606 204L606 139L505 139L505 129L404 129L404 172L303 172L303 247L202 247L202 150L101 150L101 193L0 193Z" fill="#8b3a1c"></path><path d="M0 455L101 455L101 649L202 649L202 627L303 627L303 681L404 681L404 627L505 627L505 411L606 411L606 541L707 541L707 509L808 509L808 617L909 617L909 519L1011 519L1011 606L1112 606L1112 681L1213 681L1213 519L1314 519L1314 606L1415 606L1415 714L1516 714L1516 444L1617 444L1617 584L1718 584L1718 476L1819 476L1819 509L1920 509L1920 606L1920 420L1920 442L1819 442L1819 355L1718 355L1718 485L1617 485L1617 334L1516 334L1516 604L1415 604L1415 474L1314 474L1314 399L1213 399L1213 625L1112 625L1112 420L1011 420L1011 409L909 409L909 399L808 399L808 366L707 366L707 442L606 442L606 345L505 345L505 528L404 528L404 496L303 496L303 517L202 517L202 463L101 463L101 355L0 355Z" fill="#6f2c1c"></path><path d="M0 573L101 573L101 735L202 735L202 725L303 725L303 800L404 800L404 768L505 768L505 519L606 519L606 660L707 660L707 552L808 552L808 660L909 660L909 573L1011 573L1011 735L1112 735L1112 779L1213 779L1213 595L1314 595L1314 703L1415 703L1415 789L1516 789L1516 552L1617 552L1617 692L1718 692L1718 530L1819 530L1819 552L1920 552L1920 681L1920 604L1920 507L1819 507L1819 474L1718 474L1718 582L1617 582L1617 442L1516 442L1516 712L1415 712L1415 604L1314 604L1314 517L1213 517L1213 679L1112 679L1112 604L1011 604L1011 517L909 517L909 615L808 615L808 507L707 507L707 539L606 539L606 409L505 409L505 625L404 625L404 679L303 679L303 625L202 625L202 647L101 647L101 453L0 453Z" fill="#532119"></path><path d="M0 897L101 897L101 930L202 930L202 908L303 908L303 973L404 973L404 908L505 908L505 973L606 973L606 930L707 930L707 897L808 897L808 833L909 833L909 887L1011 887L1011 962L1112 962L1112 951L1213 951L1213 984L1314 984L1314 995L1415 995L1415 930L1516 930L1516 984L1617 984L1617 833L1718 833L1718 973L1819 973L1819 930L1920 930L1920 876L1920 679L1920 550L1819 550L1819 528L1718 528L1718 690L1617 690L1617 550L1516 550L1516 787L1415 787L1415 701L1314 701L1314 593L1213 593L1213 777L1112 777L1112 733L1011 733L1011 571L909 571L909 658L808 658L808 550L707 550L707 658L606 658L606 517L505 517L505 766L404 766L404 798L303 798L303 723L202 723L202 733L101 733L101 571L0 571Z" fill="#371714"></path><path d="M0 1081L101 1081L101 1081L202 1081L202 1081L303 1081L303 1081L404 1081L404 1081L505 1081L505 1081L606 1081L606 1081L707 1081L707 1081L808 1081L808 1081L909 1081L909 1081L1011 1081L1011 1081L1112 1081L1112 1081L1213 1081L1213 1081L1314 1081L1314 1081L1415 1081L1415 1081L1516 1081L1516 1081L1617 1081L1617 1081L1718 1081L1718 1081L1819 1081L1819 1081L1920 1081L1920 1081L1920 874L1920 928L1819 928L1819 971L1718 971L1718 831L1617 831L1617 982L1516 982L1516 928L1415 928L1415 993L1314 993L1314 982L1213 982L1213 949L1112 949L1112 960L1011 960L1011 885L909 885L909 831L808 831L808 895L707 895L707 928L606 928L606 971L505 971L505 906L404 906L404 971L303 971L303 906L202 906L202 928L101 928L101 895L0 895Z" fill="#1e0b09"></path></svg>