<svg width="30" height="30" viewBox="0 0 61 61" fill="none" xmlns="http://www.w3.org/2000/svg">
<rect x="13.1256" y="3.62899" width="11.619" height="26.24" fill="#D9D9D9"/>
<path d="M32.0065 44.8633C32.0065 53.1444 25.504 59.8576 17.4827 59.8576C9.46145 59.8576 2.95892 52.0145 2.95892 43.7334C9.44047 36.861 12.3994 10.1158 17.4827 6.36721C27.6494 10.1158 26.1429 35.6115 32.0065 44.8633Z" fill="#FF521C"/>
<path d="M55.9791 6.73133C55.9457 8.60936 55.2195 11.1521 51.8151 12.138C52.8812 9.95635 53.0439 7.86839 52.2886 5.91664C51.2792 3.29638 47.9111 1.24966 45.6701 0.135085C44.9047 -0.24727 43.9229 0.227549 43.9374 0.98851C43.9665 2.37798 43.4756 4.40846 41.0922 6.45893C37.9173 9.18789 36.3095 12.0081 36.3095 14.8395C36.3095 18.3944 39.2143 22.9402 45.0238 22.9402C39.1547 17.8908 43.5714 13.59 43.5714 13.59C44.8001 20.9797 50.8159 22.9402 53.7381 22.9402C56.2231 22.9402 61 21.3783 61 14.8832C61 10.9685 59.0654 7.9971 57.5361 6.26276C57.0321 5.69047 55.9907 6.01535 55.9791 6.73133" fill="#FF521C"/>
<path d="M52.8277 34.1713C52.812 34.9897 52.4702 36.0977 50.8682 36.5273C51.3699 35.5766 51.4464 34.6668 51.091 33.8163C50.616 32.6745 49.031 31.7827 47.9764 31.297C47.6162 31.1304 47.1542 31.3373 47.161 31.6689C47.1747 32.2743 46.9437 33.1591 45.8221 34.0526C44.328 35.2418 43.5714 36.4707 43.5714 37.7044C43.5714 39.2535 44.9384 41.2343 47.6723 41.2343C44.9104 39.0341 46.9888 37.16 46.9888 37.16C47.567 40.38 50.398 41.2343 51.7731 41.2343C52.9425 41.2343 55.1905 40.5537 55.1905 37.7235C55.1905 36.0176 54.2801 34.7229 53.5604 33.9671C53.3232 33.7178 52.8332 33.8593 52.8277 34.1713" fill="#FF521C"/>
<path d="M28.2687 31.726V8.83697C28.2687 3.97041 23.7405 0 18.1851 0C12.6153 0 8.10156 3.95797 8.10156 8.83697V31.726C3.06702 34.6758 0 39.6295 0 45.0188C0 53.8309 8.15943 61 18.1851 61C28.2108 61 36.3702 53.8309 36.3702 45.0188C36.3702 39.6295 33.3177 34.6758 28.2687 31.726V31.726ZM18.1851 55.9094C11.4145 55.9094 5.90257 51.018 5.90257 45.0188C5.90257 40.9737 8.41984 37.2771 12.4562 35.3852C13.411 34.9372 14.0041 34.0783 14.0041 33.1573V8.83697C14.0041 6.77086 15.8848 5.09059 18.1851 5.09059C20.4854 5.09059 22.3661 6.77086 22.3661 8.83697V33.1449C22.3661 34.0783 22.9592 34.9372 23.9141 35.3728C27.9649 37.2646 30.4677 40.9612 30.4677 45.0063C30.4677 51.018 24.9557 55.9094 18.1851 55.9094V55.9094Z" fill="white"/>
</svg>
