<svg width="30" height="30" viewBox="0 0 61 61" fill="none" xmlns="http://www.w3.org/2000/svg">
<rect x="19.1372" y="4.78431" width="9.56863" height="25.1176" fill="#D9D9D9"/>
<path d="M34.6863 44.2549C34.6863 52.1818 29.3312 58.6078 22.7255 58.6078C16.1197 58.6078 10.7647 52.1818 10.7647 44.2549C10.7647 36.328 18.5392 27.5098 22.7255 23.9216C31.098 27.5098 34.6863 36.328 34.6863 44.2549Z" fill="#00B4D8"/>
<path d="M58.4742 14.8568V11.4256L50.7658 12.4264V12.3311L55.6148 6.0166L52.5529 4.30098L49.4314 11.366H49.3361L46.167 4.36055L43.0574 6.12383L47.8588 12.2834V12.3787L40.3529 11.4256V14.8568L47.9064 13.8918V13.999L43.0574 20.1467L45.9644 21.9695L49.2885 14.8568H49.3838L52.4457 21.9219L55.6625 20.099L50.7658 14.0467V13.9395L58.4742 14.8568Z" fill="#00B4D8"/>
<path d="M50.0986 35.3252L52.5529 32.1322L51.0041 31.2625L49.4195 34.8486H49.3719L47.7635 31.2863L46.1908 32.1918L48.6213 35.3014V35.3609L44.8207 34.8725V36.6119L48.6451 36.1234V36.1711L46.1908 39.2926L47.6682 40.21L49.348 36.6119H49.3957L50.9445 40.1861L52.5768 39.2687L50.0986 36.1949V36.1473L54.0064 36.6119V34.8725L50.0986 35.3848V35.3252Z" fill="#00B4D8"/>
<path d="M31.608 31.6795V9.76953C31.608 5.11113 27.8789 1.31055 23.3039 1.31055C18.717 1.31055 14.9998 5.09922 14.9998 9.76953V31.6795C10.8537 34.5031 8.32793 39.2449 8.32793 44.4037C8.32793 52.8389 15.0475 59.7014 23.3039 59.7014C31.5603 59.7014 38.2799 52.8389 38.2799 44.4037C38.2799 39.2449 35.766 34.5031 31.608 31.6795V31.6795ZM23.3039 54.8285C17.7281 54.8285 13.1889 50.1463 13.1889 44.4037C13.1889 40.5316 15.2619 36.9932 18.5859 35.1822C19.3723 34.7533 19.8607 33.9312 19.8607 33.0496V9.76953C19.8607 7.7918 21.4096 6.1834 23.3039 6.1834C25.1982 6.1834 26.7471 7.7918 26.7471 9.76953V33.0377C26.7471 33.9312 27.2355 34.7533 28.0219 35.1703C31.3578 36.9812 33.4189 40.5197 33.4189 44.3918C33.4189 50.1463 28.8797 54.8285 23.3039 54.8285V54.8285Z" fill="white"/>
</svg>
